<?xml version="1.0" encoding="UTF-8" standalone="no"?>
<svg
   version="1.1"
   width="512"
   height="276"
   viewBox="-0.2 -0.05 512.28339 276.2"
   id="svg116"
   sodipodi:docname="logo.svg"
   inkscape:version="1.4.2 (f4327f4, 2025-05-13)"
   xmlns:inkscape="http://www.inkscape.org/namespaces/inkscape"
   xmlns:sodipodi="http://sodipodi.sourceforge.net/DTD/sodipodi-0.dtd"
   xmlns="http://www.w3.org/2000/svg"
   xmlns:svg="http://www.w3.org/2000/svg">
  <defs
     id="defs116">
    <rect
       x="271.58717"
       y="34.11563"
       width="8.7289122"
       height="2.1770437"
       id="rect117" />
    <rect
       x="279.61438"
       y="83.61674"
       width="223.42393"
       height="160.54414"
       id="rect116" />
    <rect
       x="271.58716"
       y="34.115631"
       width="8.7449827"
       height="6.8836098"
       id="rect117-0" />
  </defs>
  <sodipodi:namedview
     id="namedview116"
     pagecolor="#ffffff"
     bordercolor="#000000"
     borderopacity="0.25"
     inkscape:showpageshadow="2"
     inkscape:pageopacity="0.0"
     inkscape:pagecheckerboard="0"
     inkscape:deskcolor="#d1d1d1"
     inkscape:zoom="0.747458"
     inkscape:cx="-173.92282"
     inkscape:cy="83.616738"
     inkscape:window-width="2560"
     inkscape:window-height="1369"
     inkscape:window-x="-8"
     inkscape:window-y="-8"
     inkscape:window-maximized="1"
     inkscape:current-layer="layer1" />
  <g
     id="g116">
    <path
       fill="#5dc1cf"
       d="m 163.15,240.7 q 7.3,-9.1 19.65,-15.3 13,-6.5 21.25,-4.25 -1.45,5.55 -3.45,10.55 -4.45,11.3 -8.55,15.2 -2.4,2.25 -5.75,2.4 l -1.1,0.1 -9.8,-0.75 q -7.5,-1.15 -9.15,-2.15 -0.75,-0.45 -2.75,-5 l -0.35,-0.8 h -0.05 v -0.05 l 0.05,0.05"
       id="path2" />
    <path
       fill="#50a8b4"
       d="m 206.3,172 q 2.45,3.55 2.2,17.9 -0.3,16.1 -4.45,31.25 -8.25,-2.25 -21.25,4.25 -12.35,6.2 -19.7,15.3 v -0.05 q -2.05,-4.4 -3.5,-6.5 -2.25,-3.25 -4.65,-3.9 v -0.1 q 0,-1.75 5.2,-9.25 5.65,-8.25 14.45,-18.9 9.65,-11.65 17.7,-19.75 8,-8.05 11.85,-9.95 1.75,-0.95 2.15,-0.3"
       id="path3" />
    <path
       fill="#5dc1cf"
       d="m 69.75,125.1 q 9.3,-4.1 18.65,-4.6 11.45,-0.6 65.1,34.7 26.85,17.7 51.35,35.6 -2.2,7.3 -5.6,13.1 -4.1,6.95 -10.6,13.1 -7.3,6.85 -20.5,11.45 -9.5,3.35 -12.65,3.35 -0.7,0 -1.05,-2.4 l -0.5,-4.35 q -0.15,-2.05 -1.25,-1.35 -1.05,0.7 -0.65,3.25 1.25,6.7 2.9,19.7 1.95,15.65 1.35,17.85 0,0.35 -1.15,1 -3.55,1.9 -12.95,3.15 l -11.05,0.45 q -1.55,-0.45 -6.05,-4.95 -5.5,-5.4 -10.5,-12.4 -14.55,-20.25 -16.65,-41.35 -0.45,-4.6 -1.2,-6.2 -0.8,-1.5 -1.1,1.1 -0.45,3.4 0.65,12.5 Q 85.7,213.75 74.15,202.2 57.05,185.15 55,163.9 q -0.25,-2.65 -0.75,-3.7 -0.5,-1 -0.85,0.1 -0.9,2.95 0.8,12.6 1.25,6.8 4.1,12.55 5.35,10.6 17.15,21.9 -0.5,2.95 -2.1,6.35 -1.75,3.75 -4.2,6.65 -0.95,1.25 -4.3,2.2 -6.65,1.95 -18.7,0.65 l -2.1,-0.4 q -3.5,-0.6 -5.25,-2.4 -1.6,-1.65 -1.9,-4.6 -0.3,-3.65 0.5,-8.65 l 1.15,-7.65 q 0.5,-4.35 0.25,-7.05 -1.5,-15.5 -1.15,-20.35 0.95,-13.1 8.75,-26.2 8.35,-14.15 23.35,-20.8"
       id="path5" />
    <path
       fill="#50a8b4"
       d="m 81.55,200.8 q 7.85,3.6 14.1,4.5 -0.45,3.4 0.65,12.5 -8.05,-3.1 -18,-11.75 Q 63.95,193.6 58.2,178 q 7.65,15.55 23.35,22.8"
       id="path6" />
    <path
       fill="#50a8b4"
       d="m 75.45,207.35 q -0.5,2.95 -2.1,6.35 -1.75,3.75 -4.2,6.65 l -2.2,1.45 q -3.35,1.5 -9.15,1.8 7.45,-2.95 6.6,-15.6 -0.75,-10.5 -6.5,-23.4 5.3,11.1 17.55,22.75"
       id="path7" />
    <path
       fill="#50a8b4"
       d="m 64.4,127.6 q 6.55,-3.75 14.25,-5.65 5.1,-1.2 9.75,-1.45 11.45,-0.6 65.1,34.7 26.85,17.7 51.35,35.6 -2.2,7.3 -5.6,13.1 -4.1,6.95 -10.6,13.1 -7.3,6.85 -20.5,11.45 -9.5,3.35 -12.65,3.35 -0.7,0 -1.05,-2.4 l -0.5,-4.35 q -0.15,-2.05 -1.25,-1.35 -1.05,0.7 -0.65,3.25 1.25,6.7 2.9,19.7 1.95,15.65 1.35,17.85 0,0.35 -1.15,1 l -2.1,0.85 q 0.25,-14.25 -3.3,-23.95 -5.8,-15.9 -21.6,-22.2 -3.3,-32.2 -12.1,-51 -15.9,-33.8 -51.65,-41.6"
       id="path8" />
    <path
       fill="#ffffff"
       d="m 49.35,221.5 q 0.9,1.4 0.85,2.1 0,0.75 -1.05,2.55 -1.1,1.75 -1.5,1.75 -0.5,0 -2.15,-1.7 -1.7,-1.75 -1.6,-2.55 0.05,-0.75 2.05,-3.55 0.55,-0.8 0.95,-0.9 0.35,-0.05 0.95,0.45 l 1.5,1.85"
       id="path10" />
    <path
       fill="#ffffff"
       d="m 59.3,220 q 0.45,-0.15 1.8,1.65 1.35,1.85 1.5,2.9 l -0.8,2.2 q -0.85,1.75 -1.3,1.9 -0.5,0.15 -2.4,-1.5 -1.85,-1.65 -1.95,-2.3 -0.05,-0.65 1.35,-2.7 1.35,-1.95 1.8,-2.15"
       id="path12" />
    <path
       fill="#ffffff"
       d="m 69.35,218.1 q 0.7,-0.25 2.05,3.2 1.35,3.35 1.2,3.8 -0.1,0.3 -2.6,-0.65 -2.6,-0.95 -2.8,-1.55 -0.2,-0.7 0.6,-2.6 0.85,-1.9 1.55,-2.2"
       id="path14" />
    <path
       fill="#ffffff"
       d="m 131.8,269.8 q 0.1,-1 0.75,-2.1 0.7,-1.25 1.45,-1.45 0.8,-0.25 2.1,1.2 1.2,1.3 1.25,2.05 l -0.75,2.5 q -0.75,1.8 -1.15,2 -0.45,0.2 -2.05,-1.55 -1.65,-1.85 -1.6,-2.65"
       id="path16" />
    <path
       fill="#ffffff"
       d="m 145.75,264.9 q 0.45,-0.1 2,0.95 1.6,1.05 1.7,1.6 l -0.25,2.95 q -0.4,2.4 -0.75,2.6 -0.45,0.25 -2.9,-1.55 -2.45,-1.85 -2.45,-2.55 0,-0.7 1.1,-2.35 1.1,-1.55 1.55,-1.65"
       id="path18" />
    <path
       fill="#ffffff"
       d="m 155.9,261.25 q 1.75,1 3.1,3.9 1.15,2.55 0.95,3.3 -0.15,0.45 -3.1,-0.55 -2.9,-1 -3.25,-1.4 -0.35,-0.45 0.6,-3.05 0.95,-2.65 1.7,-2.2"
       id="path20" />
    <path
       fill="#ffffff"
       d="m 167.1,243.9 q 0.5,0.1 1.25,1.6 0.7,1.5 0.45,1.95 l -1.65,1.85 q -1.45,1.4 -1.85,1.4 -0.35,0 -0.65,-2.4 l -0.2,-2.8 q 0.05,-0.4 1.1,-1.05 1.1,-0.65 1.55,-0.55"
       id="path22" />
    <path
       fill="#ffffff"
       d="m 178.8,246.4 q 0.6,0.2 1.65,1.3 1.25,1.25 1.1,1.9 l -1.75,2.9 q -1.65,2.15 -2.05,2.1 -0.5,0 -1.5,-2.35 -1.05,-2.35 -0.75,-3.1 0.3,-0.8 1.6,-1.85 1.3,-1.1 1.7,-0.9"
       id="path24" />
    <path
       fill="#ffffff"
       d="m 190.2,247.5 q 1.3,-1.3 1.7,-0.95 0.4,0.35 0.8,1.5 l 0.35,1.9 -0.45,1.6 q -0.45,1.45 -0.9,1.85 -0.45,0.4 -1.75,-1.5 -1.15,-1.7 -1.3,-2.45 0.45,-0.8 1.55,-1.95"
       id="path26" />
    <path
       fill="#00a63c"
       d="M 99.353021,96.713453 82.5,99.6 54.15,88.2 c 9.6,-5.2 15.266667,-8.483333 17,-9.85 l 2.05,-1.6 -2.55,0.5 c -1.7,0.433333 -5.233333,1.716667 -10.6,3.85 -4.866667,1.966667 -8,3.3 -9.4,4 l -8.5,-7.1 6.7,-3.75 c 3.4,-2.1 5.866667,-3.95 7.4,-5.55 l 1.7,-1.65 C 57.98333,66.883333 57,67.11667 55,67.75 l -9.9,3.5 -7.95,3.1 -6.65,-5.8 6.75,-3.25 6.85,-3.45 1.9,-0.95 c 0.833333,-0.533333 0.06667,-0.6 -2.3,-0.2 l -19.1,3.35 -2.25,-1.45 9.5,-5 1.55,-0.6 c 0.666667,-0.433333 0.03333,-0.633333 -1.9,-0.6 L 25.45,56.55 20.2,56.5 c 1.366667,-1.4 3.433333,-2.833333 6.2,-4.3 l 8.95,2.35 2.55,1 c 1.3,0.366667 0.883333,-0.1 -1.25,-1.4 -2.1,-1.3 -3.7,-2.2 -4.8,-2.7 l -2.55,-1.05 4.3,-1.3 10.1,5.65 c 0.266667,0.06667 0.2,-0.25 -0.2,-0.95 -1.433333,-2.533333 -2.9,-4.716667 -4.4,-6.55 L 49.25,46.9 c 1.933333,3.833333 3.566667,6.783333 4.9,8.85 0.733333,1.1 1.166667,1.466667 1.3,1.1 V 56 C 54.65,51.733333 54.166667,48.933333 54,47.6 l 3.15,0.75 6.85,11.7 c 0.633333,0.733333 0.633333,-0.03333 0,-2.3 l -1.9,-5.95 -1.35,-3.45 11.65,4.85 4.9,12.85 0.5,-2.1 -1.6,-8.7 c 1.7,0.733333 4.516667,2.216667 8.45,4.45 3.766667,2.166667 6.766667,3.983333 9,5.45 l -2.103877,23.473672 4.273254,2.772761 1.344401,0.790606"
       id="path28"
       sodipodi:nodetypes="cccccccccccccccccccccccccccccccccccccccccccccccccccccccc" />
    <path
       fill="#00a63c"
       d="m 101.26922,97.850878 7.4424,4.877622 L 147.75,108.5 c -4.1,4.96667 -8.06667,9.5 -11.9,13.6 -6.83333,7.26667 -11.8,11.58333 -14.9,12.95 -3.8,-1.3 -11.03333,-2 -21.7,-2.1 -6.133333,-0.0667 -12.2,0.0333 -18.2,0.3 L 76,117.5 c -0.466667,-1.43333 -0.833333,-2.13333 -1.1,-2.1 -0.3,0 -0.383333,0.78333 -0.25,2.35 0.733333,6.9 1.15,12.8 1.25,17.7 l -17.95,1.7 c 0.5,-7.56667 0.5,-12.53333 0,-14.9 -0.3,-1.56667 -1.166667,0.48333 -2.6,6.15 -1.4,5.46667 -2.116667,8.96667 -2.15,10.5 l -18,5.1 -0.05,-1.95 c 0,-1.43333 0.116667,-3.11667 0.35,-5.05 0.266667,-2 0.4,-3.8 0.4,-5.4 0.03333,-2.3 -0.03333,-3.43333 -0.2,-3.4 -0.1,0.0333 -0.483333,1.05 -1.15,3.05 l -5.65,15.25 -12.3,2.15 6.4,-12.6 1.45,-1.65 c 0.566667,-0.83333 -0.2,-0.6 -2.3,0.7 -2.333333,1.46667 -4.7,3.21667 -7.1,5.25 l -8.45,7.6 -3.75,3.45 c 0.066667,-1.63333 0.25,-4.05 0.55,-7.25 l 13.8,-9.3 1.5,-1 c 0.6,-0.6 -0.08333,-0.68333 -2.05,-0.25 -3.866667,0.83333 -8.5666667,2.33333 -14.1,4.5 1.4,-2.73333 3.35,-5.96667 5.85,-9.7 9.1,-3.3 14.85,-5.31667 17.25,-6.05 1.866667,-0.56667 2.816667,-0.95 2.85,-1.15 L 25.35,121 12.6,121.85 c 1.266667,-2.13333 2.5,-4.01667 3.7,-5.65 1.466667,-1.96667 2.533333,-3.08333 3.2,-3.35 l 9.7,-1.25 10.05,-0.85 2.25,-0.3 c 0.133333,-0.1 -0.55,-0.45 -2.05,-1.05 -5.033333,-2.1 -8.733333,-3.45 -11.1,-4.05 l 6.1,-4.65 4.9,-3.4 6.85,1.35 9.1,1.65 2.95,0.2 C 58.35,100.36667 57.5,99.866667 55.7,99 l -10,-4.35 10.7,-5.6 21.35,6.8 C 79.083333,96.083333 78.3,95.4 75.4,93.8 l -6.05,-3.5 -2.5,-1.65 12.65,-2.4 13.75,9.55 3.729477,-0.996315"
       id="path30"
       sodipodi:nodetypes="ccccccccccccccccccccccccccccccccccccccccccccccccccccccccccccc" />
    <path
       fill="#009233"
       d="M 93.25,95.8 88.4,85.1 95.234961,93.433505 108.95801,102.86701 147.75,108.5 c -4.1,4.96667 -8.06667,9.5 -11.9,13.6 -6.83333,7.26667 -11.8,11.58333 -14.9,12.95 -2.4,-0.83333 -6.18333,-1.41667 -11.35,-1.75 0.36667,-6.53333 -0.46667,-11.83333 -2.5,-15.9 -2.53333,-5.16667 -7.06667,-8.75 -13.6,-10.75 0,-2.83333 -0.883333,-5.76667 -2.65,-8.8 C 89.55,95.683333 87.466667,93 84.6,89.8 l 8.65,6"
       id="path31"
       sodipodi:nodetypes="ccccccccccccc" />
    <path
       fill="#00a63c"
       d="m 249.2,66.9 q -2.9,3.6 -3.95,4.45 -1.4,1.15 -1.4,1.4 0.05,0.35 2.2,-0.45 3,-1.2 12.55,-6.6 l 9.2,4.75 -7.3,2.9 q -6.05,2.35 -7.9,2.8 l -3.45,0.75 q -0.85,0.25 1.4,0.4 l 15.85,0.5 -6.45,6.1 -8.15,-1 -12.1,-1.65 q -3.6,-0.45 -2.35,0.3 l 2,0.85 q 15.85,6.5 16.15,6.95 0.2,0.3 -5.25,4.3 l -5.7,3.85 Q 225.8,87.3 223.1,87.05 l -2.35,-0.15 q -0.15,0.15 2,1.3 l 8.2,5.4 q 5.85,4.1 5.9,4.6 0.05,0.35 -5.2,2.7 l -6.7,2.9 q -15.3,-11.1 -22.1,-12 -4.4,-0.55 -3.55,0 l 2.9,1.3 q 1.35,0.85 6.35,5.75 5.6,5.5 8.5,9.25 -1.65,0.45 -3.65,1.45 -1.05,-1.15 -4.85,-3.85 -3.85,-2.75 -5.65,-3.65 -1.65,-0.8 -1.6,-0.55 l 0.95,1.4 3.35,4.35 3.95,4.8 -7.2,4.55 -5.15,-4.45 q -4.3,-3.4 -6.75,-4.55 -1.7,-0.8 -1.75,-0.5 l 0.75,1.65 q 0.6,1.25 3.25,4.9 l 4.45,5.6 -17,5.45 -33.8,-11.35 13.2,-32.05 q 3.55,-3.45 22.35,-12.95 l -2,7.3 -1.9,6.5 q -0.8,2.25 -0.65,2.65 0.2,0.45 1.8,-2.35 l 4.6,-9.05 3.3,-7.3 12.35,-3.55 q -2.1,3.8 -5.1,13 -1.05,3.05 -0.95,3.25 l 2.05,-2.75 Q 198,71.9 205.05,61.9 l 8.45,-1.2 q -2.45,3.45 -4.8,10.2 -0.75,2.2 -0.55,2.25 l 1.6,-1.6 9.95,-11.15 10.05,-0.3 -1.6,3.75 -2.25,4.8 -0.9,2.25 1.85,-1.45 6.2,-5.05 q 4.8,-3.9 6.7,-4.9 2.65,0.1 12.85,3.05 l -3.4,4.35"
       id="path33" />
    <path
       fill="#009233"
       d="m 167.9,75.75 q 5.75,8.9 8.15,14.95 15.9,0.5 24.75,6.1 2.9,1.8 7.15,5.55 l 7.55,6.3 -2.1,0.9 q -1.05,-1.15 -4.85,-3.85 -3.85,-2.75 -5.65,-3.65 -1.65,-0.8 -1.6,-0.55 l 0.95,1.4 3.35,4.35 3.95,4.8 -7.2,4.55 -5.15,-4.45 q -4.3,-3.4 -6.75,-4.55 -1.7,-0.8 -1.75,-0.5 l 0.75,1.65 q 0.6,1.25 3.25,4.9 l 4.45,5.6 -17,5.45 -33.8,-11.35 13.2,-32.05 q 1.7,-1.6 8.35,-5.55"
       id="path34" />
    <path
       fill="#00a63c"
       d="m 107.6,106.55 1.25,-0.75 -1.25,-0.8 q -1.05,-0.5 -6.7,-1.85 l -5.35,-1.4 9,0.3 9.25,0.65 18.5,11.1 q -18.35,5.55 -19.2,5.05 -0.4,-0.25 1.45,-2.6 1.9,-2.45 1.7,-2.8 l -8.25,-0.6 -8.25,-0.3 Q 99.5,112.4 103,109.8 l 4.6,-3.25"
       id="path36" />
    <path
       fill="#c94772"
       d="m 151.1,15.7 q 0,6.9 3.5,11.7 -9.3,5.15 -17.3,7.65 L 127.35,16.9 q 7.35,-13.75 7.4,-12.45 l -0.05,3 q 0,2.2 0.3,2.9 l 0.45,1 1.25,-0.95 q 1.2,-1.05 4.9,-3 3.8,-2 3.7,-1.4 l -0.55,3.2 -0.4,3.8 q 0,2.9 1.65,1 0.95,-1.1 3.6,-3.3 2.65,-2.2 2.35,-1.65 -0.3,0.6 -0.55,2.6 -0.3,2.15 -0.3,4.05"
       id="path38" />
    <path
       fill="#c94772"
       d="m 122.7,39 q -11.8,12.5 -14.65,16.55 -8.4,11.9 -8.4,23.9 0,7.25 5.4,19.75 -3.5,-2.55 -7,-10.85 -2,-4.75 -1.8,-10.3 0.35,-8.5 3.7,-16.25 3.1,-7.2 8.45,-13.1 3.45,-3.75 12.9,-12.6 8.1,-8.3 9.85,-14.45 0.45,1.95 -0.4,4.85 -1.7,5.75 -8.05,12.5"
       id="path43" />
    <path
       fill="#e85382"
       d="M 122.05,32.55 Q 112,41.85 108.4,45.4 93.55,59.95 93.85,76.8 94,85.6 97.45,92.15 99,94.95 102.35,98.7 80,84.05 79.85,66.25 v -0.2 q 0,-13.2 12.25,-27.15 8.7,-9.9 18.7,-15.8 8.8,-5.2 9.9,-11.9 l 0.1,-3.45 q 0,-1.25 0.4,-0.8 1.95,2.2 3.2,4.35 0.5,0.8 1.1,2.9 0.35,1.25 0.6,0.55 l 0.6,-3.1 q 0.4,-2 0.8,-1.6 1.15,1.15 2.65,7.9 l 0.15,1.55 q 0,4.65 -8.25,13.05"
       id="path42" />
    <path
       fill="#e85382"
       d="m 164.35,98.55 q -6.4,6.8 -16.3,9.25 -7.5,1.9 -16.5,1.15 -8.4,-0.7 -16.25,-3.3 -6.35,-2.15 -7.2,-3.35 l 0.15,0.05 -0.95,-1.75 q -5.45,-10.05 -5.45,-19.95 0,-11.9 7.85,-24 4.4,-6.8 14,-16.7 2.6,-2.75 6.35,-8.9 4.45,-7.45 3.55,-9.8 0.85,0.85 2.1,3.05 1.4,2.45 2.5,3.7 1.45,1.65 1.75,1.15 L 140.1,27 q 0.05,-1.35 1.35,-3.8 1.1,-2.25 2.65,-4.4 0.45,4.4 1.75,6.75 l 0.85,1.05 0.45,-1.4 q 0.75,-1.95 2.25,-4.6 2.2,-3.75 4.05,-5.35 l 1.3,-0.9 q -0.6,1.4 -0.95,3.9 -0.4,2.35 -0.4,4.45 0.05,1.85 0.4,1.75 l 0.8,-1.25 q 0.5,-1 3.05,-3.2 2.55,-2.2 2.3,-1.35 -0.95,3.8 -0.95,5.7 0,3.05 1.8,6.8 1.85,3.75 6.55,10.35 4.1,5.75 6.4,12.7 2.4,7.3 2.4,14.8 0,7.9 -2.75,15.15 -3,7.9 -9.05,14.4"
       id="path44" />
    <path
       fill="#c94772"
       d="m 102.35,98.7 q -8.9,-5.9 -14.25,-12.2 2.55,0.9 7.75,2 1.35,3.7 3.55,6.75 l 2.95,3.45"
       id="path45" />
    <path
       fill="#c94772"
       d="m 175.05,59.15 q 1.1,5.05 1.1,9.85 0,7.9 -2.75,15.15 -3,7.9 -9.05,14.4 -6.4,6.8 -16.3,9.25 -7.5,1.9 -16.5,1.15 -8.4,-0.7 -16.25,-3.3 -6.35,-2.15 -7.2,-3.35 l 0.15,0.05 -0.95,-1.75 q -2.85,-5.3 -4.15,-10.25 22.75,6.3 43.9,-1.95 22.55,-8.85 28,-29.25"
       id="path46" />
    <path
       fill="#5dc1cf"
       d="m 213.6,129.25 q 1.15,0.8 -0.1,11.05 -1.35,10.95 -4.45,22.85 1.1,5.5 -0.2,15.25 -1.35,9.9 -4.2,16.65 -2.7,6.45 -8.1,11.55 -4.45,4.25 -14.2,10.6 -9.95,6.45 -27.55,6.95 -19.75,0.55 -35.15,-7.75 -20.25,-10.9 -24.4,-28.6 -2.35,-3.2 -1.7,-6.65 0.5,-2.5 2.5,-4.75 -0.75,-3.75 1.25,-11.35 l 2.1,-6.85 -1.25,-2.25 q -1.25,-2.6 -1,-4.3 -1.1,-2.75 -2.25,-11.5 -1.25,-9.45 -0.3,-11.55 2.2,-1.65 12.55,-1.5 l 12.5,0.9 q 1.4,-1.2 7.65,-3.8 7.4,-3.1 12,-3.65 10.95,-1.3 19.85,1.05 8.3,2.25 15.35,7.85 11.85,-4.5 26,-3.15 10.45,1 13.1,2.95"
       id="path47" />
    <path
       fill="#50a8b4"
       d="m 127.3,124.2 q 7.4,-3.1 12,-3.65 17.55,-2.05 30,5.35 -7,4.4 -13.5,10.65 -4.25,4.05 -11.65,12.45 -15.5,-19.5 -32.85,-13.2 -0.2,-3.3 -2.3,-5.85 -2.1,-2.55 -4.8,-2.8 l 9.35,0.25 6.1,0.6 q 1.4,-1.2 7.65,-3.8"
       id="path48" />
    <path
       fill="#50a8b4"
       d="m 213.6,129.25 q 1.15,0.8 -0.1,11.05 -1.35,10.95 -4.45,22.85 1.1,5.5 -0.2,15.25 -1.35,9.9 -4.2,16.65 -2.85,6.75 -10.05,13.85 -7.1,7 -12.25,8.3 5.95,-3.1 10.5,-9.55 4.85,-6.8 6.9,-15.6 4.9,-20.95 -7.35,-43.3 -3.35,-6.2 -3.35,-7.15 0,-0.55 2.8,-2.5 7.3,-5.15 14.95,-8.05 6.1,-2.35 6.8,-1.8"
       id="path51" />
    <path
       fill="#431e37"
       d="m 97,132.15 v -0.25 q 1.2,1.2 3.6,6.05 2.55,5.1 3.1,7.9 -2.15,0.65 -4.55,2.65 l -1.3,-8.05 Q 97,134.35 97,132.15"
       id="path55" />
    <path
       fill="#ffffff"
       d="m 99.4,173.9 q 0,-4.9 1.55,-9.65 1.35,-4.1 2.4,-4.65 2.4,0.75 7.65,10.65 5.15,9.65 7.35,17.15 -3.2,0.25 -9.45,-3 -5.3,-2.8 -9.1,-5.9 -0.4,-2.5 -0.4,-4.6"
       id="path57" />
    <path
       fill="#ffffff"
       d="m 172.95,169.5 q 4.1,-3.75 8.25,-6.3 3.8,-2.3 6.4,-2.85 1.5,1.8 2.35,6.65 0.8,4.35 0.8,9.15 0,4.3 -0.65,6.25 -5.3,0.75 -26.3,5.7 l -3.6,0.85 q 0.5,-4.05 3.85,-9.15 3.35,-5.15 8.9,-10.3"
       id="path61" />
    <path
       fill="#431e37"
       d="m 208.05,145.15 q -0.9,6.15 -1.9,10.2 -1.65,-2.75 -4.35,-5.85 -3.25,-3.8 -6.45,-6.05 3.2,-3.15 6.6,-5.7 4.25,-3.25 6.95,-4.05 l 0.15,1.4 q 0,3.35 -1,10.05"
       id="path65" />
    <path
       fill="#008982"
       d="m 138.4,134.55 q 3,-2.9 17.85,0.45 14.95,3.35 15.25,7.45 0.25,3.65 -9.8,12.9 -10.1,9.3 -14.1,8.75 -3.85,-0.55 -7.85,-13.8 -3.95,-13.2 -1.35,-15.75"
       id="path87" />
    <path
       fill="#00736d"
       d="m 137.9,142.25 q -0.95,-6.25 0.5,-7.7 1.45,-1.4 7.15,-1.1 5.3,0.25 11.65,1.8 -4.6,4.25 -13.05,13.75 -3.5,-4.25 -6.25,-6.75"
       id="path88" />
    <path
       fill="#008982"
       d="m 137.35,162.9 q 1.15,2.05 -0.3,8 -1.4,5.75 -2.75,5.85 -1,0.1 -3.55,-4.55 -2.6,-4.8 -2.1,-6.5 0.5,-1.7 4.4,-2.65 l 4.3,-0.15"
       id="path89" />
    <path
       fill="#008982"
       d="m 79.55,180.05 -4.5,-0.15 q -0.85,-0.5 -2.6,-3.2 -1.85,-2.95 -1.7,-4.05 0.15,-1.35 1.85,-4.9 1.75,-3.8 3.05,-5.2 1.4,-1.45 5.95,-2.05 4.45,-0.6 4.85,0.4 0.7,1.7 0,8.95 -0.65,7.5 -1.85,8.65 -1.15,1.15 -5.05,1.55"
       id="path90" />
    <path
       fill="#008982"
       d="m 71.2,155.6 q -0.15,1.05 -2.3,2.4 -2.05,1.25 -2.85,1.15 -0.85,-0.15 -2.4,-3 -1.6,-3 -0.8,-3.7 0.95,-0.85 4.7,0.5 3.85,1.4 3.65,2.65"
       id="path91" />
    <path
       fill="#008982"
       d="m 38.75,197.45 0.05,-5 -0.8,-7.25 q -0.45,-4.45 -0.5,-7.8 4.05,-1.15 5.25,-1 0.8,0.1 3.65,5.15 2.85,5.1 2.85,6.7 0,1.65 -2.15,5.7 -2.15,4 -3.15,4.4 -1.2,0.55 -5.2,-0.9"
       id="path92" />
    <path
       fill="#008982"
       d="m 129.45,227.5 q 1,-0.2 7.1,4.8 6.1,4.95 6.45,6.25 0.35,1.3 -1.05,5.15 -1.35,3.85 -2.15,4.25 -0.75,0.3 -3.75,0 l -3.65,-0.7 q -0.75,-0.4 -2.6,-3 -1.85,-2.65 -2.2,-3.85 -0.4,-1.3 0.35,-6.95 0.7,-5.8 1.5,-5.95"
       id="path93" />
    <path
       fill="#008982"
       d="m 126.75,250.55 q 0.85,-0.3 3.95,1.1 3.15,1.4 3.35,2.4 0.2,1 -1.6,3.25 -1.7,2.2 -2.5,2.4 l -2.35,-0.3 q -1.6,-0.5 -1.9,-1.25 -0.45,-1.2 0,-4.3 0.45,-3.1 1.05,-3.3"
       id="path94" />
    <path
       fill="#008982"
       d="m 191.75,234.55 q -0.45,0.9 -4.4,1.4 -3.95,0.5 -4.2,-0.45 -0.25,-1 1.75,-4 2,-3 2.95,-2.95 0.95,0.1 2.65,2.65 1.65,2.6 1.25,3.35"
       id="path95" />
    <path
       fill="#008982"
       d="m 200.6,231.7 -0.15,0.4 -4,-0.15 q -0.9,-0.9 -1.15,-5.1 -0.25,-3.9 0.2,-5.45 l 0.1,-0.4 q 4.9,-0.8 8.45,0.15 -1.45,5.55 -3.45,10.55"
       id="path96" />
    <path
       fill="#00736d"
       d="m 205.75,214.15 -1.7,7 q -3.55,-0.95 -8.45,-0.15 0.6,-1.7 1.9,-3.9 1.45,-2.45 2.2,-2.75 l 2.6,-0.3 3.45,0.1"
       id="path97" />
    <path
       fill="#00a63c"
       d="m 183.75,120.55 -9.05,-3.15 q -3.15,-0.85 -3.15,-0.55 0,0.25 2.8,1.7 2.65,1.4 7.05,4.7 l 6.25,5.25 -3.65,6.5 q -2.6,4.6 -3,4.65 -0.55,0 -7.75,-8.6 l -1.4,-1.4 0.35,2 2.15,8 q 1.9,6.6 1.75,6.95 l -3.9,3.6 -5.3,4.5 -0.1,-7 q -0.05,-5.6 -0.35,-6.1 -0.5,-0.8 -5.5,8.65 -8.15,-4.85 -10.7,-5.9 l 4.45,-6.2 4.4,-6.15 1.4,-1.8 q 0.25,-0.7 -2.1,0.55 -3.8,2 -9.95,10.05 l -6.25,-3.95 5.45,-5.95 q 4.35,-4.5 5.85,-5.3 l 2,-1.1 -2.2,-0.05 q -5.5,0.35 -13.65,8.95 l -9.2,-7.8 q 1.75,-2.35 5.25,-6.4 4.3,-5 5.6,-5.9 l 1.65,-1.2 -1.85,0.1 q -4.75,0.75 -10.25,5.7 -2.95,2.7 -7,7.35 l -3.65,-5.7 q 4.35,-7.5 11.35,-11.8 10.9,-6.75 23.55,-1.3 l 0.65,-0.25 q 6.8,-2.7 12.5,-3 10.6,-0.5 19.4,6.35 l 1.85,3.8 -1.4,-0.15 -3.3,-0.1 -2.55,0.3 q 0.15,0.25 2.25,0.9 2.4,0.75 5.9,2.65 l 0.2,2.75 q 0.1,2.55 -0.15,3.2 l -6.7,-2.35"
       id="path108" />
  </g>
  <g
     inkscape:groupmode="layer"
     id="layer1"
     inkscape:label="Text">
    <text
       xml:space="preserve"
       style="font-style:normal;font-variant:normal;font-weight:normal;font-stretch:normal;font-size:70.2023px;font-family:'Pokemon Generation 1';-inkscape-font-specification:'Pokemon Generation 1, ';text-align:center;writing-mode:lr-tb;direction:ltr;text-anchor:middle;fill:#e85382;fill-opacity:1;stroke:#e85382;stroke-width:0;stroke-linecap:square"
       x="384.3425"
       y="124.7"
       id="text2"><tspan
         sodipodi:role="line"
         id="tspan2"
         style="stroke-width:0;fill:#e85382;fill-opacity:1"
         x="384.3425"
         y="124.7">IVY</tspan></text>
    <text
       xml:space="preserve"
       style="font-style:normal;font-variant:normal;font-weight:normal;font-stretch:normal;font-size:70.2023px;font-family:'Pokemon Generation 1';-inkscape-font-specification:'Pokemon Generation 1, ';text-align:center;writing-mode:lr-tb;direction:ltr;text-anchor:middle;fill:#5dc1cf;fill-opacity:1;stroke:#e85382;stroke-width:0;stroke-linecap:square"
       x="384.3425"
       y="196.13426"
       id="text2-8"><tspan
         sodipodi:role="line"
         id="tspan2-2"
         style="stroke-width:0"
         x="384.3425"
         y="196.13426">SIM</tspan></text>
    <text
       xml:space="preserve"
       style="font-style:normal;font-variant:normal;font-weight:normal;font-stretch:normal;font-size:70.2023px;font-family:'Pokemon Generation 1';-inkscape-font-specification:'Pokemon Generation 1, ';text-align:center;writing-mode:lr-tb;direction:ltr;text-anchor:middle;fill:#00a63c;fill-opacity:1;stroke:#e85382;stroke-width:0;stroke-linecap:square"
       x="273.41953"
       y="196.13426"
       id="text2-8-5"><tspan
         sodipodi:role="line"
         id="tspan2-2-5"
         style="stroke-width:0;fill:#00a63c;fill-opacity:1"
         x="273.41953"
         y="196.13426">.</tspan></text>
    <text
       xml:space="preserve"
       style="font-style:normal;font-variant:normal;font-weight:normal;font-stretch:normal;font-size:16.0116px;font-family:'Pokemon Generation 1';-inkscape-font-specification:'Pokemon Generation 1, ';text-align:center;writing-mode:lr-tb;direction:ltr;text-anchor:middle;fill:#000000;fill-opacity:1;stroke:#e85382;stroke-width:0;stroke-linecap:square"
       x="333.61377"
       y="256.71161"
       id="text3"><tspan
         sodipodi:role="line"
         id="tspan3"
         style="fill:#000000;fill-opacity:1;stroke-width:0"
         x="333.61377"
         y="256.71161">It's super effective!</tspan></text>
  </g>
</svg>
